<svg xmlns="http://www.w3.org/2000/svg" viewBox="0 0 100 66"><defs><style>.cls-1{fill:#b3b1aa;}.cls-2{fill:#3e4463;}.cls-3{fill:#818599;}.cls-4{fill:#d4db00;}.cls-5{fill:#808633;}</style></defs><g id="Capa_2" data-name="Capa 2"><g id="Capa_1-2" data-name="Capa 1"><rect class="cls-1" width="100" height="66" rx="7.6"/><path class="cls-2" d="M92.4,0H7.6A7.6,7.6,0,0,0,0,7.6V18H100V7.6A7.6,7.6,0,0,0,92.4,0Z"/><rect class="cls-3" x="53" y="23" width="21" height="16" rx="2.39"/><rect class="cls-2" x="7" y="29" width="34" height="25" rx="3.79"/><polygon class="cls-4" points="21 36 31 41.65 21 47 21 36"/><circle class="cls-1" cx="20" cy="9" r="3"/><circle class="cls-4" cx="11" cy="9" r="3"/><circle class="cls-5" cx="29" cy="9" r="3"/><rect class="cls-2" x="79" y="26" width="15" height="3" rx="1.5"/><rect class="cls-2" x="79" y="32" width="8" height="3" rx="1.5"/><rect class="cls-2" x="79" y="38" width="12" height="3" rx="1.5"/><rect class="cls-2" x="53" y="45" width="30" height="16" rx="2.39"/></g></g></svg>