<svg xmlns="http://www.w3.org/2000/svg" viewBox="0 0 100 66"><defs><style>.cls-1{fill:#b3b1aa;}.cls-2{fill:#3e4463;}</style></defs><g id="Capa_2" data-name="Capa 2"><g id="Capa_1-2" data-name="Capa 1"><rect class="cls-1" x="0.5" y="0.5" width="99" height="65" rx="7.1"/><path class="cls-1" d="M92.4,1A6.61,6.61,0,0,1,99,7.6V58.4A6.61,6.61,0,0,1,92.4,65H7.6A6.61,6.61,0,0,1,1,58.4V7.6A6.61,6.61,0,0,1,7.6,1H92.4m0-1H7.6A7.6,7.6,0,0,0,0,7.6V58.4A7.6,7.6,0,0,0,7.6,66H92.4a7.6,7.6,0,0,0,7.6-7.6V7.6A7.6,7.6,0,0,0,92.4,0Z"/><path class="cls-2" d="M.5,17.5V7.6A7.1,7.1,0,0,1,7.6.5H92.4a7.1,7.1,0,0,1,7.1,7.1v9.9Z"/><path class="cls-1" d="M92.4,1A6.61,6.61,0,0,1,99,7.6V17H1V7.6A6.61,6.61,0,0,1,7.6,1H92.4m0-1H7.6A7.6,7.6,0,0,0,0,7.6V18H100V7.6A7.6,7.6,0,0,0,92.4,0Z"/></g></g></svg>