<svg xmlns="http://www.w3.org/2000/svg" viewBox="0 0 127.5 127.5"><defs><style>.cls-1{fill:#d4db00;opacity:0.4;}.cls-2,.cls-3,.cls-4{fill:none;}.cls-2,.cls-3{stroke:#808633;stroke-miterlimit:10;stroke-width:2px;}.cls-3{stroke-linecap:round;}</style></defs><g id="Capa_2" data-name="Capa 2"><g id="Capa_1-2" data-name="Capa 1"><path class="cls-1" d="M24.8,45.11a15.37,15.37,0,0,1,1.25-11.75A15.45,15.45,0,0,1,40.8,26.11c11-9,15-5,19.5-3.25v82.89a17.4,17.4,0,0,1-17.95,1.82A17.46,17.46,0,0,1,33.8,97.11a20.86,20.86,0,0,1-13-26C11.8,64.11,13.8,51.11,24.8,45.11Z"/><path class="cls-2" d="M24.8,45.7A15.37,15.37,0,0,1,26.05,34,15.43,15.43,0,0,1,40.8,26.7c11-9,15-5,19.5-3.26v82.89a17.4,17.4,0,0,1-17.95,1.82A17.45,17.45,0,0,1,33.8,97.7a20.87,20.87,0,0,1-13-26C11.8,64.7,13.8,51.7,24.8,45.7Z"/><path class="cls-3" d="M40.3,39.2c18-6,16,23,3,25"/><path class="cls-3" d="M51.35,57.69A13,13,0,0,1,55.3,66.2"/><path class="cls-3" d="M25.3,58.2c5-5,5-6-1-12.06a14.47,14.47,0,0,0,13,6.06"/><path class="cls-3" d="M20.3,75.2c1-5,5.32-6,8.3-6.12"/><path class="cls-3" d="M34.44,97.5C33.3,86.2,46.3,80.2,57.3,82.2"/><path class="cls-3" d="M43.3,71.2c6,2,5,9,2,12"/><path class="cls-3" d="M59.3,96.2c-3,1-4,2-9.64-.19"/><path class="cls-3" d="M59.6,29.83c-2.35-1.47-3-2.57-8.3-1.63"/><circle class="cls-4" cx="63.75" cy="63.75" r="63.75"/></g></g></svg>