<svg xmlns="http://www.w3.org/2000/svg" viewBox="0 0 2067.63 1473.1"><defs><style>.cls-1{fill:#b3b1aa;}.cls-2{fill:#d4db00;}.cls-3{fill:#292f52;}.cls-4{fill:#8a6bff;}.cls-5{fill:#cfd2d3;}.cls-6{fill:#3e4463;}.cls-7{fill:#808633;}.cls-8{fill:#e6e8e8;}.cls-9{fill:#a2a9ad;}.cls-10{fill:#ffa993;}.cls-11{fill:#ff7d71;}.cls-12{fill:#ffb29e;}.cls-13{fill:#ff7167;}</style></defs><g id="Capa_2" data-name="Capa 2"><g id="Layer_2" data-name="Layer 2"><path class="cls-1" d="M246.68,1028c137.28,329.53,326.91,153.64,568,46.14,139.65-62.26,240.26-66,382.83-13.24,162.24,60,348.51,110.57,493.44-30,326.45-316.7,13.32-978.58-376.35-900.44-132,26.46-232.77,151.21-361.75,176-125.4,24.11-229.74-109.29-335.6-166.13-187.14-100.49-331,42.58-399.3,249.82C146.31,607.35,165.31,820.91,246.68,1028Z"/><path class="cls-2" d="M2067.63,133.47V534.78a41.69,41.69,0,0,1-41.58,41.57H1587.44a41.69,41.69,0,0,1-41.58-41.57V133.47a41.7,41.7,0,0,1,41.58-41.57h438.61A41.7,41.7,0,0,1,2067.63,133.47Z"/><path class="cls-3" d="M2067.63,133.47v46.11H1545.86V133.47a41.7,41.7,0,0,1,41.58-41.57h438.61A41.7,41.7,0,0,1,2067.63,133.47Z"/><path class="cls-4" d="M2005.27,135.52A14.55,14.55,0,1,0,2019.82,121,14.55,14.55,0,0,0,2005.27,135.52Z"/><path class="cls-4" d="M1950.7,135.52A14.55,14.55,0,1,0,1965.25,121,14.55,14.55,0,0,0,1950.7,135.52Z"/><path class="cls-5" d="M1771.76,135.53c0,8-9,14.55-20,14.55H1598.43c-11,0-20-6.55-20-14.55s9-14.56,20-14.56h153.33C1762.76,121,1771.76,127.52,1771.76,135.53Z"/><path class="cls-6" d="M1895.79,248.37H1606.15a10.4,10.4,0,1,1,0-20.79h289.64a10.4,10.4,0,0,1,0,20.79Z"/><path class="cls-6" d="M1836.2,296.63H1661.58a10.4,10.4,0,0,1,0-20.79H1836.2a10.4,10.4,0,0,1,0,20.79Z"/><path class="cls-6" d="M1940.13,344.89H1661.58a10.4,10.4,0,0,1,0-20.79h278.55a10.4,10.4,0,0,1,0,20.79Z"/><path class="cls-6" d="M1895.79,393.15h-158a10.4,10.4,0,0,1,0-20.79h158a10.4,10.4,0,0,1,0,20.79Z"/><path class="cls-6" d="M1988.64,441.41H1661.58a10.4,10.4,0,0,1,0-20.79h327.06a10.4,10.4,0,0,1,0,20.79Z"/><path class="cls-6" d="M1748.89,489.67H1606.15a10.4,10.4,0,1,1,0-20.79h142.74a10.4,10.4,0,0,1,0,20.79Z"/><path class="cls-6" d="M1895.79,537.93H1661.58a10.4,10.4,0,0,1,0-20.79h234.21a10.4,10.4,0,0,1,0,20.79Z"/><path class="cls-6" d="M317.15,548.51a137.75,137.75,0,0,0-.95-16.45l30.9-17.85A176.58,176.58,0,0,0,290,415.41l-30.85,17.8a138.67,138.67,0,0,0-28.45-16.45V381.11a177.53,177.53,0,0,0-114.15-.05v35.7a138.67,138.67,0,0,0-28.45,16.45l-30.9-17.85A176.88,176.88,0,0,0,0,514.21l31,17.9a142,142,0,0,0,0,32.8L.05,582.76A176,176,0,0,0,57.2,681.61l30.85-17.8a143.4,143.4,0,0,0,28.45,16.45v35.65a177.53,177.53,0,0,0,114.15,0v-35.6a143.4,143.4,0,0,0,28.45-16.45L290,681.61a176.36,176.36,0,0,0,57.1-98.85L316.2,564.91A136.31,136.31,0,0,0,317.15,548.51Zm-60.5,17.9a84.93,84.93,0,0,1-140.15,45.1,85.21,85.21,0,0,1-26.1-45.1,87.64,87.64,0,0,1-1.85-17.9,85,85,0,1,1,168.1,17.9Z"/><rect class="cls-2" x="340.35" width="299.98" height="162.25" rx="40"/><path class="cls-6" d="M548.84,134.25a10,10,0,0,1-7.23-16.91l34.64-36.21L541.61,44.91a10,10,0,0,1,14.45-13.82l41.25,43.13a10,10,0,0,1,0,13.82l-41.25,43.12A9.93,9.93,0,0,1,548.84,134.25Z"/><path class="cls-6" d="M431.86,134.25a9.94,9.94,0,0,1-7.23-3.09L383.38,88a10,10,0,0,1,0-13.82l41.25-43.13a10,10,0,0,1,14.45,13.82L404.44,81.13l34.64,36.21a10,10,0,0,1-7.22,16.91Z"/><path class="cls-6" d="M474.09,134.26a10,10,0,0,1-9.35-13.53l32.5-86.25A10,10,0,0,1,516,41.53l-32.5,86.25A10,10,0,0,1,474.09,134.26Z"/><path class="cls-1" d="M1639.72,1173c0,91.7-261.29,300.1-583.6,300.1S472.52,1264.7,472.52,1173s261.28-166,583.6-166S1639.72,1081.31,1639.72,1173Z"/><path class="cls-3" d="M1368.22,920.57c40.08,3,237.43,67,242.43,122s-415,297.5-599.06,295-535.94-230-523.44-284.17,145.59-126.51,227.5-132.87C818.15,912.61,1368.22,920.57,1368.22,920.57Z"/><path class="cls-3" d="M1001.48,1218.34c27.92,6.77,76.67,44.27,94.17,54.27s93.75,56.25,100,76.25,5,78.75-37.5,96.25-185-31.25-203.75-48.75C933.15,1257.61,1001.48,1218.34,1001.48,1218.34Z"/><path class="cls-6" d="M487.82,1047.61c-14.34,21.25-18.42,106.25.33,136.25s221.25,165,455,212.5c-7.5-35,74.45-138,91.12-156.25C863.43,1156.05,618.15,1013.86,487.82,1047.61Z"/><path class="cls-3" d="M1019,1258.44c-107.08-12.08-243.56,51.67-253.45,91.67s-1.13,87.5,23.87,111.25,189.58,13.76,272.92-51.25C1079.4,1342.61,1019,1258.44,1019,1258.44Z"/><path class="cls-2" d="M1017.42,1277.73c-44.69-1.79-131.77,21.13-156.77,43.63,15,38.75,26.25,95,13.75,113.75,50,8.75,147.22-16.25,174.86-38.75C1051.9,1360.11,1017.42,1277.73,1017.42,1277.73Z"/><path class="cls-6" d="M1610.65,1042.61c19.19,32.5,30,117.5,0,147.5s-350,191.67-548.33,220c-30-28.33-51.67-135-43.34-151.67C1152.32,1156.78,1454,1023.44,1610.65,1042.61Z"/><path class="cls-7" d="M1350.69,788.42c5.32,67.34-28.75,75-52.5,91.25s-16.25,65-7.5,147.5c-53.75,42.5-345,106.25-506.25,20,3.75-23.75,6.25-88.75,2.5-117.5s-17.5-45-66.25-73.75,2.5-337.5,23.75-363.75,152.5-108.75,221.25-118.75c0,0,105-6.25,147.5,0s196.25,78.75,237.5,126.25S1346.94,740.92,1350.69,788.42Z"/><path class="cls-2" d="M1204,1053.44c6.67-1.66,146.67-25,208.34-70,86.44-63.07-26.74-441.62-55.71-474.85,0,0-22.17-36.42-85.31-66.55-48.11,28.88-36.64,161.79-33.11,188.88,10.79,82.52,44.91,196.3,52.46,222.52-18.33,20-106.67,60-106.67,60Z"/><path class="cls-2" d="M884,1061.78s-60,2.78-116.66-16.67c-203.93-70-104.13-460.44-22.88-552.94,0,0,27.34-29.44,63.27-47.76,29.52,12.24,53.3,90.06,35.9,179C827.32,706.78,804,868.44,804,885.11c18.34,13.33,71.67,40,71.67,40Z"/><path class="cls-5" d="M1318.9,1105.11H759.06L734.81,753.16c145.13-22.84,487.07-22.84,608.34,0Z"/><path class="cls-8" d="M1076.48,920.57a37.5,37.5,0,1,1-37.5-37.5A37.5,37.5,0,0,1,1076.48,920.57Z"/><polygon class="cls-9" points="1318.9 1105.11 1318.9 1134.27 758.67 1134.27 759.06 1105.11 1318.9 1105.11"/><path class="cls-10" d="M1126.11,300.92c-2.16,22.51-4.17,78.34,10,98.34-54.17,47.5-158.33,38.33-192.5,5.83,7.5-26.67,7.5-81.67,0-99.17s88.33-30.83,88.33-30.83Z"/><path class="cls-10" d="M1166.07,181.89c0,26.42-9.47,34-15.35,34s-4.17-23.59-4.17-38.41.81-29.53,6.69-29.53S1166.07,154.77,1166.07,181.89Z"/><path class="cls-10" d="M899.3,186.81c0,27,8.23,34.77,13.35,34.77s3.63-24.15,3.63-39.32S915.57,152,910.46,152,899.3,159.05,899.3,186.81Z"/><path class="cls-11" d="M1074.54,370.64c-39.27,17.78-99.18,15.56-125.89,0,.51-12.24.8-27.65,0-36.52C980.28,344.25,1074.54,370.64,1074.54,370.64Z"/><path class="cls-12" d="M915.68,158.89c-6.4,119.83,36.32,206.4,121.55,211S1149.68,234,1153,171.57,1080.84,33.36,1038.23,31.08C934.64,25.55,915.68,158.89,915.68,158.89Z"/><path class="cls-11" d="M903.3,168.51c37.61-27.92,47.51-73.83,56.06-79.59,49.5-33.33,83.83,25.28,153.28-3.33,0,0,14.2,51.41,47.55,67.16,1.55-33.13-34.37-89.71-55.51-112.18S960.74-6.77,938.05,47.33,903.3,168.51,903.3,168.51Z"/><path class="cls-3" d="M901.12,160.25c27.41-16.84,40.77-54.49,42.88-69,61.85-42.93,108.25,12.55,169.4-4,4.93,21.14,27.42,52.3,42.18,60.5,2.73-16.61,4.38-54-3.35-72.53s3.25-57.41-118-58.87c-126.38-1.52-130.84,51.75-128,74.2S901.12,160.25,901.12,160.25Z"/><ellipse class="cls-3" cx="1088.82" cy="208.11" rx="9.37" ry="15.94"/><ellipse class="cls-3" cx="991.63" cy="208.11" rx="9.37" ry="15.94"/><path class="cls-3" d="M1055.25,156.51l.26-1a17.55,17.55,0,0,1,1-2.69,25.84,25.84,0,0,1,5.1-7.62,22.06,22.06,0,0,1,4.38-3.84,30,30,0,0,1,5.49-3.3,32.71,32.71,0,0,1,6.49-2.14,34.31,34.31,0,0,1,7-.84,32.23,32.23,0,0,1,7.14.65,27.44,27.44,0,0,1,6.7,2.06,25.67,25.67,0,0,1,5.74,3.31,18.23,18.23,0,0,1,4.47,4,22.9,22.9,0,0,1,4.94,7.82,19.5,19.5,0,0,1,1.12,3.61l.12.63a.65.65,0,0,1-.52.78.78.78,0,0,1-.4-.05l-2.38-1.12a52,52,0,0,0-6.34-2.62,27.42,27.42,0,0,0-4.35-1.4,38,38,0,0,0-5-1.1,50.4,50.4,0,0,0-11-.72,72.13,72.13,0,0,0-29.22,7,.66.66,0,0,1-.89-.29.6.6,0,0,1-.06-.47Z"/><path class="cls-3" d="M948.83,160.48a21.14,21.14,0,0,1,1.35-3.85,28.81,28.81,0,0,1,5.23-7.95,24.65,24.65,0,0,1,4.39-4,30.65,30.65,0,0,1,5.54-3.54,37.3,37.3,0,0,1,29.2-1.58,30.8,30.8,0,0,1,11.8,8,24.62,24.62,0,0,1,3.27,4.79,16.86,16.86,0,0,1,1.5,4.29,17.07,17.07,0,0,1,.48,4l0,.75a.76.76,0,0,1-.8.7.81.81,0,0,1-.38-.12l-2.29-1.41a35.42,35.42,0,0,0-6.27-3.13,44.24,44.24,0,0,0-9.67-2.39,57.7,57.7,0,0,0-11.55-.1,91.89,91.89,0,0,0-21.48,4c-5.76,1.71-9.48,3.15-9.48,3.15a.73.73,0,0,1-.93-.38.59.59,0,0,1,0-.39Z"/><path class="cls-13" d="M1056,216.56s.24.7.64,1.94,1.1,2.9,1.87,5a94.48,94.48,0,0,1,5,15.87,22.14,22.14,0,0,1,0,9.72,8.3,8.3,0,0,1-6.88,6.28,16,16,0,0,1-5.94-.4c-1.32-.38-2-.63-2-.63a.8.8,0,0,1-.48-1,.77.77,0,0,1,.71-.53h.06s.75,0,2,0a16,16,0,0,0,4.84-.8,4.71,4.71,0,0,0,3.31-4,22.6,22.6,0,0,0-.47-7.7c-1.1-5.57-2.79-11.33-3.57-15.83a43.83,43.83,0,0,1-.67-5.55,11.45,11.45,0,0,1,0-2.13v-.07a.82.82,0,0,1,.92-.67A.79.79,0,0,1,1056,216.56Z"/><path class="cls-13" d="M1003.69,281.3s1.26.52,3.41,1.54a26.66,26.66,0,0,0,3.77,1.5,44.5,44.5,0,0,0,4.84,1.53c1.8.56,3.79,1,5.91,1.44s4.4.69,6.69,1.13c2.35.26,4.78.49,7.25.68s5,.24,7.52.2c2.53.13,5.06-.12,7.55-.2,2.46-.28,4.95-.28,7.27-.7s4.63-.6,6.75-1.07,4.08-1,6-1.33c1.77-.59,3.48-1,4.91-1.55s2.71-1,3.69-1.49c1.93-1,3.13-1.56,3.13-1.56l.23-.11a1.58,1.58,0,0,1,1.88,2.46s-.92,1.06-2.7,2.91a40.55,40.55,0,0,1-8.57,5.86,55,55,0,0,1-6.33,2.69,51.36,51.36,0,0,1-7.33,2.15c-2.57.67-5.27,1-8,1.44-2.77.18-5.57.52-8.39.47a71.34,71.34,0,0,1-8.41-.42,66.42,66.42,0,0,1-8.06-1.34,52.74,52.74,0,0,1-7.36-2.22L1016,294l-3-1.54a29.67,29.67,0,0,1-5-3.12,19.45,19.45,0,0,1-3.46-2.81c-1.69-1.67-2.62-2.67-2.62-2.67a1.62,1.62,0,0,1,1.82-2.59Z"/></g></g></svg>