<svg xmlns="http://www.w3.org/2000/svg" viewBox="0 0 127.5 127.5"><defs><style>.cls-1,.cls-3{fill:none;}.cls-1,.cls-2{stroke:#d4db00;stroke-miterlimit:10;}.cls-2{fill:#d4db00;}</style></defs><g id="Capa_2" data-name="Capa 2"><g id="Capa_1-2" data-name="Capa 1"><polyline class="cls-1" points="69 43.33 69 30.14 78 23 78 15.33"/><circle class="cls-1" cx="78" cy="13.5" r="2"/><polyline class="cls-1" points="78 43.33 78 33.71 82 31"/><circle class="cls-1" cx="83.71" cy="29.33" r="2"/><path class="cls-2" d="M76,45s-.67-2.15,0-3a2.66,2.66,0,0,1,4,0c.67.85,0,3,0,3Z"/><path class="cls-2" d="M66.71,45s-.67-2.15,0-3a2.66,2.66,0,0,1,4,0c.67.85,0,3,0,3Z"/><path class="cls-2" d="M89,52s2.15-.66,3,0a2.66,2.66,0,0,1,0,4c-.85.67-3,0-3,0Z"/><path class="cls-2" d="M89,59.41s2.15-.66,3,0a2.66,2.66,0,0,1,0,4c-.85.67-3,0-3,0Z"/><path class="cls-2" d="M89,66.41s2.15-.66,3,0a2.66,2.66,0,0,1,0,4c-.85.67-3,0-3,0Z"/><path class="cls-2" d="M89,73.41s2.15-.66,3,0a2.66,2.66,0,0,1,0,4c-.85.67-3,0-3,0Z"/><path class="cls-2" d="M80,85s.66,2.15,0,3a2.66,2.66,0,0,1-4,0c-.67-.85,0-3,0-3Z"/><path class="cls-2" d="M71,85s.67,2.15,0,3a2.66,2.66,0,0,1-4,0c-.67-.85,0-3,0-3Z"/><polyline class="cls-1" points="68.65 86.58 68.65 99.77 77.65 106.91 77.65 114.58"/><circle class="cls-1" cx="77.65" cy="116.41" r="2"/><polyline class="cls-1" points="77.65 86.58 77.65 96.2 81.65 98.91"/><circle class="cls-1" cx="83.37" cy="100.58" r="2"/><polyline class="cls-1" points="89 54.05 102.42 54.05 107 50"/><polyline class="cls-1" points="89 61.41 104.63 61.41 112.06 54.05 119.5 54.05"/><circle class="cls-1" cx="108.39" cy="48.46" r="2"/><circle class="cls-1" cx="121" cy="54" r="2"/><polyline class="cls-1" points="89.14 75.69 98.35 75.69 101.5 79.74"/><polyline class="cls-1" points="89.14 68.32 101.63 68.32 107.56 75.69 113.5 75.69"/><circle class="cls-1" cx="102.54" cy="81.28" r="2"/><circle class="cls-1" cx="115.14" cy="75.74" r="2"/><circle class="cls-3" cx="63.75" cy="63.75" r="63.75"/></g></g></svg>